<?xml version="1.0" encoding="utf-8"?>
<svg version="1.1" xmlns:xlink="http://www.w3.org/1999/xlink" width="28px" height="8px" xmlns="http://www.w3.org/2000/svg">
  <g transform="matrix(1 0 0 1 -1133 -151 )">
    <path d="M 14 0  C 16.24677419354839 0  18.064516129032256 1.7888888888888883  18.064516129032256 4  C 18.064516129032256 6.211111111111112  16.24677419354839 8  14 8  C 11.753225806451612 8  9.935483870967742 6.211111111111112  9.935483870967742 4  C 9.935483870967742 1.7888888888888883  11.753225806451612 0  14 0  Z M 28 4  C 28 1.7888888888888883  26.182258064516127 0  23.935483870967744 0  C 21.688709677419354 0  19.870967741935484 1.7888888888888883  19.870967741935484 4  C 19.870967741935484 6.211111111111112  21.688709677419354 8  23.935483870967744 8  C 26.182258064516127 8  28 6.211111111111112  28 4  Z M 8.129032258064516 4  C 8.129032258064516 1.7888888888888883  6.311290322580645 0  4.064516129032258 0  C 1.817741935483871 0  0 1.7888888888888883  0 4  C 0 6.211111111111112  1.817741935483871 8  4.064516129032258 8  C 6.311290322580645 8  8.129032258064516 6.211111111111112  8.129032258064516 4  Z " fill-rule="nonzero" fill="#7f7f7f" stroke="none" transform="matrix(1 0 0 1 1133 151 )" />
  </g>
</svg>